<svg xmlns="http://www.w3.org/2000/svg" viewBox="0 0 60 60"><title>24-Car Delivery</title><g id="_24-Car_Delivery" data-name="24-Car Delivery"><path d="M3,38H15a6,6,0,0,0-5.69,4.11L9,42H1V38Z" style="fill:#dce1eb"/><circle cx="15" cy="44" r="2" style="fill:#e9edf5"/><path d="M20.69,42.11A5.9,5.9,0,0,1,21,44,6,6,0,0,1,9,44a5.9,5.9,0,0,1,.31-1.89,5.994,5.994,0,0,1,11.38,0ZM17,44a2,2,0,1,0-2,2A2.006,2.006,0,0,0,17,44Z" style="fill:#7e8596"/><circle cx="45" cy="44" r="2" style="fill:#e9edf5"/><path d="M50.69,42.11A5.9,5.9,0,0,1,51,44a6,6,0,0,1-12,0,5.9,5.9,0,0,1,.31-1.89,5.994,5.994,0,0,1,11.38,0ZM47,44a2,2,0,1,0-2,2A2.006,2.006,0,0,0,47,44Z" style="fill:#7e8596"/><path d="M50.69,42.11A6,6,0,0,0,45,38H57s0,4-4,4H51Z" style="fill:#bec3d2"/><path d="M48,13l6,15H38V25l-4-4V16a2.938,2.938,0,0,1,3-3Z" style="fill:#65b1fc"/><path d="M38,25v3H54s5,2,5,4v6H45a6,6,0,0,0-5.69,4.11L39,42H21l-.31.11A6,6,0,0,0,15,38H34V21Z" style="fill:#dce1eb"/><rect x="30" y="34" width="4" height="4" style="fill:#bec3d2"/><rect x="30" y="30" width="4" height="4" style="fill:#e9edf5"/><rect x="30" y="26" width="4" height="4" style="fill:#bec3d2"/><rect x="30" y="22" width="4" height="4" style="fill:#e9edf5"/><path d="M30,34v4H3V12a1.959,1.959,0,0,1,2-2H30V34Z" style="fill:#ffe45c"/><polygon points="38 25 34 21 34 22 34 26 34 30 34 34 34 38 34 42 38 42 38 28 38 25" style="fill:#bec3d2"/><path d="M38.7,13H37a2.938,2.938,0,0,0-3,3v2.26A16.051,16.051,0,0,1,38.7,13Z" style="fill:#87c7ff"/><path d="M36.425,23.425a16,16,0,0,1,12.062-9.209L48,13H38.7A16.051,16.051,0,0,0,34,18.26V21Z" style="fill:#a3d4ff"/><path d="M54.771,27.237,48.929,12.628A1,1,0,0,0,48,12H37a3.887,3.887,0,0,0-4,4v5H31V10a1,1,0,0,0-1-1H5a2.916,2.916,0,0,0-3,3V37H1a1,1,0,0,0-1,1v4a1,1,0,0,0,1,1H8.081a7,7,0,1,0,13.838,0H38.081a7,7,0,1,0,13.838,0H53a4.686,4.686,0,0,0,4.9-4H59a1,1,0,0,0,1-1V32C60,29.729,56.4,27.932,54.771,27.237ZM37,14H47.323l5.2,13H39V25a1,1,0,0,0-.293-.707L35,20.586V16A1.883,1.883,0,0,1,37,14ZM31,37V35h2v2Zm0-6h2v2H31Zm2-2H31V27h2Zm0-6v2H31V23ZM4,12.012A.918.918,0,0,1,5,11H29V37H4ZM2,39h8.1a6.91,6.91,0,0,0-1.4,2H2ZM15,49a5.006,5.006,0,0,1-5-5,5,5,0,0,1,9.74-1.579l0,.009A4.911,4.911,0,0,1,20,44,5.006,5.006,0,0,1,15,49Zm30,0a5.006,5.006,0,0,1-5-5,5,5,0,0,1,9.74-1.579l0,.009A4.911,4.911,0,0,1,50,44,5.006,5.006,0,0,1,45,49Zm8-8H51.307a6.951,6.951,0,0,0-1.4-2h5.941A2.682,2.682,0,0,1,53,41Zm5-4H45a6.958,6.958,0,0,0-6.307,4H21.307a6.951,6.951,0,0,0-1.4-2H34a1,1,0,0,0,1-1V23.414l2,2V35a1,1,0,0,0,2,0V29H53.793C56.014,29.921,58,31.327,58,32Z" style="fill:#2b1505"/><path d="M15,41a3,3,0,1,0,3,3A3,3,0,0,0,15,41Zm0,4a1,1,0,1,1,1-1A1,1,0,0,1,15,45Z" style="fill:#2b1505"/><path d="M45,41a3,3,0,1,0,3,3A3,3,0,0,0,45,41Zm0,4a1,1,0,1,1,1-1A1,1,0,0,1,45,45Z" style="fill:#2b1505"/><path d="M52,32H51a1,1,0,0,0,0,2h1a1,1,0,0,0,0-2Z" style="fill:#2b1505"/><circle cx="7" cy="14" r="1" style="fill:#ffb13b"/><circle cx="7" cy="18" r="1" style="fill:#ffb13b"/><circle cx="7" cy="22" r="1" style="fill:#ffb13b"/><circle cx="7" cy="26" r="1" style="fill:#ffb13b"/><circle cx="7" cy="30" r="1" style="fill:#ffb13b"/><circle cx="7" cy="34" r="1" style="fill:#ffb13b"/><circle cx="10" cy="32" r="1" style="fill:#ffb13b"/><circle cx="10" cy="28" r="1" style="fill:#ffb13b"/><circle cx="10" cy="24" r="1" style="fill:#ffb13b"/><circle cx="10" cy="20" r="1" style="fill:#ffb13b"/><circle cx="10" cy="16" r="1" style="fill:#ffb13b"/><circle cx="13" cy="14" r="1" style="fill:#ffb13b"/><circle cx="13" cy="18" r="1" style="fill:#ffb13b"/><circle cx="13" cy="22" r="1" style="fill:#ffb13b"/><circle cx="13" cy="26" r="1" style="fill:#ffb13b"/><circle cx="13" cy="30" r="1" style="fill:#ffb13b"/><circle cx="13" cy="34" r="1" style="fill:#ffb13b"/><circle cx="16" cy="32" r="1" style="fill:#ffb13b"/><circle cx="16" cy="28" r="1" style="fill:#ffb13b"/><circle cx="16" cy="24" r="1" style="fill:#ffb13b"/><circle cx="16" cy="20" r="1" style="fill:#ffb13b"/><circle cx="16" cy="16" r="1" style="fill:#ffb13b"/><circle cx="19" cy="14" r="1" style="fill:#ffb13b"/><circle cx="19" cy="18" r="1" style="fill:#ffb13b"/><circle cx="19" cy="22" r="1" style="fill:#ffb13b"/><circle cx="19" cy="26" r="1" style="fill:#ffb13b"/><circle cx="19" cy="30" r="1" style="fill:#ffb13b"/><circle cx="19" cy="34" r="1" style="fill:#ffb13b"/><circle cx="22" cy="32" r="1" style="fill:#ffb13b"/><circle cx="22" cy="28" r="1" style="fill:#ffb13b"/><circle cx="22" cy="24" r="1" style="fill:#ffb13b"/><circle cx="22" cy="20" r="1" style="fill:#ffb13b"/><circle cx="22" cy="16" r="1" style="fill:#ffb13b"/><circle cx="25" cy="14" r="1" style="fill:#ffb13b"/><circle cx="25" cy="18" r="1" style="fill:#ffb13b"/><circle cx="25" cy="22" r="1" style="fill:#ffb13b"/><circle cx="25" cy="26" r="1" style="fill:#ffb13b"/><circle cx="25" cy="30" r="1" style="fill:#ffb13b"/><circle cx="25" cy="34" r="1" style="fill:#ffb13b"/></g></svg>