<?xml version="1.0" encoding="iso-8859-1"?>
<!-- Uploaded to: SVG Repo, www.svgrepo.com, Generator: SVG Repo Mixer Tools -->
<svg fill="#000000" height="800px" width="800px" version="1.1" id="Layer_1" xmlns="http://www.w3.org/2000/svg" xmlns:xlink="http://www.w3.org/1999/xlink" viewBox="0 0 492.264 492.264" xml:space="preserve">
<path d="M483.827,142.896c-10.058-17.654-23.346-28.058-39.51-30.913c-16.118-2.821-31.477,2.705-42.24,8.401c-1.42-14.844-3.558-29.507-6.462-43.863l-1.606-7.894H10.096L8.5,76.521C2.865,104.435,0,133.406,0,162.656c0,95.734,31.317,185.501,82.833,241.288H33.365v6h69.962h197.462h69.962v-6h-49.468c22.864-24.76,41.802-56.123,55.721-91.847c44.243-20.662,95.611-64.54,110.891-110.894C494.875,180.002,493.471,159.848,483.827,142.896z M313,403.944H91C35,353.81,6,261.8,6,162.656c0-29.8,2.4-59,8-88.056h374c5.5,29.5,7,59,7,88.056C395,261.8,360,353.81,313,403.944z M476.25,192.71C462.75,233.64,419.7,274.21,378.41,298.75C391.98,254,399.46,204.98,399.46,154.49C399.46,146.51,399.23,138.56,398.87,130.63C407.13,124.97,425.38,114.42,442.93,117.6C454.84,119.73,465.06,128.17,473.32,142.68C481.48,157.01,482.47,173.84,476.25,192.71z"/>
</svg>
